<svg id="Layer_1" data-name="Layer 1" xmlns="http://www.w3.org/2000/svg" viewBox="0 0 36 36"><defs><style>.cls-1{fill:#020a0a;}.cls-2{fill:#fdcf48;}</style></defs><path class="cls-1" d="M18,1.46A16.54,16.54,0,1,1,1.46,18,16.56,16.56,0,0,1,18,1.46M18,1A17,17,0,1,0,35,18,17,17,0,0,0,18,1Z"></path><path class="cls-1" d="M21,17.6a5.11,5.11,0,0,1,2.89,1.21,3.22,3.22,0,0,1,1,2.46,3.34,3.34,0,0,1-1.4,2.86,6.53,6.53,0,0,1-3.92,1c-.43,0-1.11,0-2-.07S15.89,25,15.4,25c-.16,0-.47,0-.92,0l-1.11,0a2.26,2.26,0,0,1-1.16-.24.76.76,0,0,1-.39-.69.88.88,0,0,1,.57-.79A3.14,3.14,0,0,0,13,23a5.29,5.29,0,0,0,.22-1.64c0-1,.07-2.25.07-3.87,0-1.29,0-2.32-.07-3.09A4,4,0,0,0,13,13a3,3,0,0,0-.63-.38.87.87,0,0,1-.57-.78.75.75,0,0,1,.4-.69,2.27,2.27,0,0,1,1.17-.24l1.21,0,.89,0c.49,0,1.15,0,2-.05s1.39-.06,1.72-.06a5.91,5.91,0,0,1,3.51.88,2.94,2.94,0,0,1,1.23,2.54,2.89,2.89,0,0,1-.74,2A4.29,4.29,0,0,1,21,17.46l-.07,0a0,0,0,0,0,0,0s0,0,0,0Zm-4.28-.94.5.05h.55A4,4,0,0,0,20,16.25a1.68,1.68,0,0,0,.69-1.5A1.9,1.9,0,0,0,20,13.18a3.19,3.19,0,0,0-2-.52,2.29,2.29,0,0,0-.82.11.71.71,0,0,0-.36.38,3.64,3.64,0,0,0-.11.86c0,.42,0,1.15,0,2.17Zm0,2.14v1.79c0,.69,0,1.19,0,1.49a3.06,3.06,0,0,0,.1.65.91.91,0,0,0,.52.48,3.07,3.07,0,0,0,1.11.15,3.57,3.57,0,0,0,2.19-.58,2,2,0,0,0,.75-1.71,2,2,0,0,0-.85-1.8,5.89,5.89,0,0,0-3-.54l-.47,0A2.68,2.68,0,0,0,16.71,18.8Z"></path><path class="cls-2" d="M18,5.63A12.37,12.37,0,1,1,5.63,18,12.37,12.37,0,0,1,18,5.63m0-1.54A13.91,13.91,0,1,0,31.91,18,13.93,13.93,0,0,0,18,4.09Z"></path></svg>